HIERARCHY
ROOT Hips
{
	OFFSET 0.00 0.00 0.00
	CHANNELS 6 Xposition Yposition Zposition Xrotation Yrotation Zrotation
	JOINT Spine
	{
		OFFSET 0.00000 0.84964 1.27446
		CHANNELS 3 Xrotation Yrotation Zrotation
		JOINT Spine1
		{
			OFFSET 0.00000 0.29508 1.67346
			CHANNELS 3 Xrotation Yrotation Zrotation
			JOINT Spine2
			{
				OFFSET 0.00000 0.14810 1.69281
				CHANNELS 3 Xrotation Yrotation Zrotation
				JOINT Spine3
				{
					OFFSET 0.00000 0.00000 1.69928
					CHANNELS 3 Xrotation Yrotation Zrotation
					JOINT Neck
					{
						OFFSET 0.00000 -0.63723 4.46061
						CHANNELS 3 Xrotation Yrotation Zrotation
						JOINT Head
						{
							OFFSET 0.00000 -0.40573 2.30101
							CHANNELS 3 Xrotation Yrotation Zrotation
							End Site
							{
								OFFSET 0.00000 0.00000 2.75071
							}
						}
					}
					JOINT RightShoulder
					{
						OFFSET -0.72014 -1.20022 3.88874
						CHANNELS 3 Xrotation Yrotation Zrotation
						JOINT RightArm
						{
							OFFSET -3.57668 0.00000 0.00000
							CHANNELS 3 Xrotation Yrotation Zrotation
							JOINT RightForeArm
							{
								OFFSET -5.92485 0.00000 0.00000
								CHANNELS 3 Xrotation Yrotation Zrotation
								JOINT RightHand
								{
									OFFSET -6.63013 0.00000 0.00000
									CHANNELS 3 Xrotation Yrotation Zrotation
									JOINT RightHandEnd
									{
										OFFSET -1.65321 0.00000 0.00000
										CHANNELS 3 Xrotation Yrotation Zrotation
										End Site
										{
											OFFSET -1.65321 0.00000 0.00000
										}
									}
									JOINT RightHandThumb1
									{
										OFFSET -0.66129 -1.10214 -0.44086
										CHANNELS 3 Yrotation Xrotation Zrotation
										End Site
										{
											OFFSET -1.59688 -0.42788 0.00000
										}
									}
								}
							}
						}
					}
					JOINT LeftShoulder
					{
						OFFSET 0.72014 -1.20022 3.88874
						CHANNELS 3 Xrotation Yrotation Zrotation
						JOINT LeftArm
						{
							OFFSET 3.57668 0.00000 0.00000
							CHANNELS 3 Xrotation Yrotation Zrotation
							JOINT LeftForeArm
							{
								OFFSET 5.92485 0.00000 0.00000
								CHANNELS 3 Xrotation Yrotation Zrotation
								JOINT LeftHand
								{
									OFFSET 6.63013 0.00000 0.00000
									CHANNELS 3 Xrotation Yrotation Zrotation
									JOINT LeftHandEnd
									{
										OFFSET 1.65321 0.00000 0.00000
										CHANNELS 3 Xrotation Yrotation Zrotation
										End Site
										{
											OFFSET 1.65321 0.00000 0.00000
										}
									}
									JOINT LeftHandThumb1
									{
										OFFSET 0.66129 -1.10214 -0.44086
										CHANNELS 3 Yrotation Xrotation Zrotation
										End Site
										{
											OFFSET 1.59688 -0.42788 0.00000
										}
									}
								}
							}
						}
					}
				}
			}
		}
	}
	JOINT RightUpLeg
	{
		OFFSET -2.13640 0.00000 -0.62412
		CHANNELS 3 Xrotation Yrotation Zrotation
		JOINT RightLeg
		{
			OFFSET 0.00000 0.00000 -11.49360
			CHANNELS 3 Xrotation Yrotation Zrotation
			JOINT RightFoot
			{
				OFFSET 0.00000 0.00000 -8.79036
				CHANNELS 3 Xrotation Yrotation Zrotation
				JOINT RightToeBase
				{
					OFFSET 0.00000 -3.94625 -1.43632
					CHANNELS 3 Xrotation Yrotation Zrotation
					End Site
					{
						OFFSET 0.00000 -1.72833 -0.00000
					}
				}
			}
		}
	}
	JOINT LeftUpLeg
	{
		OFFSET 2.13640 0.00000 -0.62412
		CHANNELS 3 Xrotation Yrotation Zrotation
		JOINT LeftLeg
		{
			OFFSET 0.00000 0.00000 -11.49360
			CHANNELS 3 Xrotation Yrotation Zrotation
			JOINT LeftFoot
			{
				OFFSET 0.00000 0.00000 -8.79036
				CHANNELS 3 Xrotation Yrotation Zrotation
				JOINT LeftToeBase
				{
					OFFSET 0.00000 -3.94625 -1.43632
					CHANNELS 3 Xrotation Yrotation Zrotation
					End Site
					{
						OFFSET 0.00000 -1.72833 -0.00000
					}
				}
			}
		}
	}
}
MOTION
Frames: 10
Frame Time: 0.008342
 -0.4337 9.1487 23.6086 -4.9615 -0.9271 176.6899 4.4257 -5.0608 0.9481 0.8585 -1.9383 -0.2722 -2.2179 -0.6782 4.4191 0.4426 4.9600 -1.2198 -1.4592 8.9332 -13.9730 -3.2404 -1.4742 -35.2670 1.4508 -23.9225 5.4411 -2.6539 -49.1638 -2.2926 0.0000 0.0000 15.9453 -37.6494 2.3369 4.1883 0.0000 -0.0000 0.0000 -0.0000 0.0000 -0.0000 -4.4861 16.9824 3.0884 5.4789 62.0216 6.3837 -0.0000 -0.0000 -21.2745 -4.4540 -22.8730 14.6088 -0.0000 0.0000 -0.0000 0.0000 0.0000 -0.0000 -9.9784 1.8418 -53.7192 -1.8104 0.0000 -0.0000 3.0508 0.6919 41.3882 1.5917 0.0000 0.0000 -2.1272 0.5970 20.4246 -9.1983 0.0000 -0.0000 3.9965 -6.1407 -4.7265 -4.8451 0.0000 -0.0000
 -0.4366 9.1462 23.6088 -4.9492 -0.9403 176.7651 4.4175 -5.0562 0.9446 0.8666 -1.9374 -0.2682 -2.2126 -0.6771 4.4166 0.4400 4.9578 -1.2162 -1.4752 8.9309 -13.9597 -3.2445 -1.4806 -35.2319 1.4562 -23.9215 5.4488 -2.6333 -49.1791 -2.2630 0.0000 0.0000 15.9689 -37.6653 2.3521 4.1656 0.0000 -0.0000 0.0000 0.0000 0.0000 0.0000 -4.4782 16.9876 3.0803 5.5132 61.9936 6.3417 -0.0000 -0.0000 -21.2659 -4.4469 -22.8984 14.5926 0.0000 -0.0000 0.0000 -0.0000 -0.0000 0.0000 -9.9668 1.8593 -53.7388 -1.7852 0.0000 -0.0000 3.0457 0.6669 41.3307 1.5784 0.0000 0.0000 -2.1365 0.5952 20.3898 -9.1789 0.0000 -0.0000 3.9830 -6.1516 -4.7703 -4.8467 0.0000 -0.0000
 -0.4397 9.1443 23.6092 -4.8896 -0.9527 176.8464 4.4657 -5.0447 0.9351 0.8655 -1.9347 -0.2716 -2.2112 -0.6862 4.4262 0.4395 4.9589 -1.2152 -1.4905 8.9261 -13.9424 -3.2442 -1.4817 -35.2009 1.4659 -23.9101 5.4555 -2.6119 -49.2061 -2.2285 0.0000 0.0000 15.9884 -37.6710 2.3763 4.1419 -0.0000 -0.0000 0.0000 0.0000 -0.0000 0.0000 -4.4844 16.9853 3.0708 5.5254 61.9753 6.3383 -0.0000 -0.0000 -21.2704 -4.4317 -22.9231 14.5854 0.0000 0.0000 0.0000 0.0000 0.0000 0.0000 -9.9038 1.8817 -53.7537 -1.7602 0.0000 -0.0000 3.0402 0.6335 41.2636 1.5696 0.0000 0.0000 -2.0988 0.5952 20.3341 -9.1517 0.0000 -0.0000 3.9656 -6.1620 -4.7984 -4.8475 0.0000 -0.0000
 -0.4427 9.1417 23.6095 -4.8756 -0.9673 176.9264 4.4565 -5.0407 0.9258 0.8738 -1.9334 -0.2686 -2.2083 -0.6865 4.4272 0.4386 4.9565 -1.2118 -1.5021 8.9216 -13.9258 -3.2473 -1.4855 -35.1696 1.4781 -23.9045 5.4650 -2.5994 -49.2290 -2.2056 0.0000 0.0000 16.0087 -37.6607 2.4061 4.1158 0.0000 -0.0000 -0.0000 -0.0000 -0.0000 -0.0000 -4.4848 16.9889 3.0697 5.5541 61.9492 6.3031 -0.0000 -0.0000 -21.2699 -4.4309 -22.9527 14.5725 0.0000 -0.0000 -0.0000 0.0000 0.0000 0.0000 -9.8911 1.9016 -53.7784 -1.7280 0.0000 -0.0000 3.0355 0.6005 41.2050 1.5651 0.0000 0.0000 -2.1106 0.5908 20.2906 -9.1226 0.0000 -0.0000 3.9458 -6.1754 -4.8388 -4.8480 0.0000 -0.0000
 -0.4460 9.1392 23.6099 -4.8558 -0.9806 177.0099 4.4541 -5.0334 0.9154 0.8788 -1.9316 -0.2678 -2.2061 -0.6931 4.4329 0.4376 4.9551 -1.2104 -1.5084 8.9241 -13.9136 -3.2488 -1.4938 -35.1370 1.4922 -23.8960 5.4706 -2.5901 -49.2526 -2.1863 0.0000 0.0000 16.0266 -37.6344 2.4386 4.0879 -0.0000 -0.0000 -0.0000 -0.0000 -0.0000 -0.0000 -4.4806 16.9945 3.0615 5.5574 61.9261 6.2913 -0.0000 -0.0000 -21.2732 -4.4358 -22.9797 14.5611 0.0000 0.0000 0.0000 -0.0000 -0.0000 0.0000 -9.8730 1.9266 -53.8075 -1.6906 0.0000 -0.0000 3.0283 0.5640 41.1474 1.5624 0.0000 0.0000 -2.1199 0.5874 20.2361 -9.0853 0.0000 -0.0000 3.9215 -6.1908 -4.8716 -4.8483 0.0000 -0.0000
 -0.4495 9.1375 23.6103 -4.7885 -0.9937 177.0924 4.5060 -5.0218 0.9066 0.8774 -1.9279 -0.2713 -2.2080 -0.7098 4.4481 0.4371 4.9598 -1.2146 -1.5115 8.9246 -13.9009 -3.2473 -1.4982 -35.1030 1.5129 -23.8774 5.4766 -2.5857 -49.2880 -2.1675 0.0000 0.0000 16.0397 -37.5895 2.4796 4.0610 -0.0000 0.0000 0.0000 0.0000 -0.0000 0.0000 -4.4826 16.9923 3.0596 5.5494 61.9125 6.2940 -0.0000 -0.0000 -21.2795 -4.4484 -23.0043 14.5532 -0.0000 -0.0000 -0.0000 0.0000 0.0000 0.0000 -9.8043 1.9555 -53.8336 -1.6500 0.0000 -0.0000 3.0146 0.5242 41.0888 1.5604 0.0000 0.0000 -2.0764 0.5877 20.1842 -9.0511 0.0000 -0.0000 3.8961 -6.2040 -4.9049 -4.8495 0.0000 -0.0000
 -0.4531 9.1353 23.6106 -4.7731 -1.0092 177.1750 4.4910 -5.0186 0.8967 0.8859 -1.9279 -0.2678 -2.2069 -0.7120 4.4471 0.4360 4.9544 -1.2074 -1.5133 8.9297 -13.8860 -3.2457 -1.5030 -35.0746 1.5262 -23.8625 5.4774 -2.5909 -49.3192 -2.1667 0.0000 0.0000 16.0521 -37.5252 2.5201 4.0344 0.0000 -0.0000 -0.0000 -0.0000 0.0000 -0.0000 -4.4698 17.0029 3.0545 5.5398 61.8882 6.2829 -0.0000 -0.0000 -21.2876 -4.4766 -23.0235 14.5535 0.0000 0.0000 0.0000 0.0000 -0.0000 0.0000 -9.7916 1.9816 -53.8732 -1.6028 0.0000 -0.0000 2.9987 0.4891 41.0411 1.5574 0.0000 0.0000 -2.0896 0.5826 20.1351 -9.0124 0.0000 -0.0000 3.8667 -6.2210 -4.9426 -4.8514 0.0000 -0.0000
 -0.4571 9.1341 23.6110 -4.7032 -1.0199 177.2581 4.5396 -5.0094 0.8825 0.8851 -1.9226 -0.2691 -2.2099 -0.7261 4.4602 0.4364 4.9583 -1.2090 -1.5149 8.9295 -13.8697 -3.2391 -1.5029 -35.0409 1.5516 -23.8372 5.4814 -2.5972 -49.3634 -2.1551 0.0000 0.0000 16.0535 -37.4499 2.5659 4.0124 0.0000 -0.0000 -0.0000 -0.0000 -0.0000 -0.0000 -4.4732 16.9970 3.0623 5.5195 61.8815 6.2918 -0.0000 -0.0000 -21.2945 -4.5064 -23.0359 14.5517 -0.0000 0.0000 -0.0000 0.0000 -0.0000 0.0000 -9.7217 2.0189 -53.9058 -1.5480 0.0000 -0.0000 2.9680 0.4539 40.9885 1.5528 0.0000 0.0000 -2.0446 0.5859 20.0800 -8.9718 0.0000 -0.0000 3.8345 -6.2364 -4.9732 -4.8545 0.0000 -0.0000
 -0.4612 9.1325 23.6112 -4.6872 -1.0345 177.3425 4.5198 -5.0068 0.8669 0.8926 -1.9224 -0.2683 -2.2108 -0.7310 4.4640 0.4368 4.9537 -1.2016 -1.5107 8.9395 -13.8553 -3.2356 -1.5091 -35.0076 1.5776 -23.8185 5.4797 -2.6106 -49.3973 -2.1517 0.0000 0.0000 16.0533 -37.3633 2.6102 3.9850 0.0000 0.0000 -0.0000 0.0000 0.0000 -0.0000 -4.4732 17.0132 3.0631 5.4796 61.8554 6.3238 -0.0000 -0.0000 -21.3102 -4.5410 -23.0365 14.5607 -0.0000 0.0000 -0.0000 0.0000 0.0000 -0.0000 -9.7085 2.0508 -53.9532 -1.4890 0.0000 -0.0000 2.9336 0.4269 40.9469 1.5454 0.0000 0.0000 -2.0571 0.5826 20.0275 -8.9282 0.0000 -0.0000 3.7983 -6.2558 -5.0088 -4.8584 0.0000 -0.0000
 -0.4658 9.1317 23.6115 -4.6481 -1.0413 177.4261 4.5245 -4.9986 0.8499 0.8952 -1.9180 -0.2692 -2.2127 -0.7433 4.4748 0.4388 4.9557 -1.2009 -1.5056 8.9481 -13.8406 -3.2288 -1.5139 -34.9678 1.6055 -23.7970 5.4790 -2.6308 -49.4353 -2.1532 0.0000 0.0000 16.0445 -37.2691 2.6475 3.9598 0.0000 0.0000 0.0000 0.0000 -0.0000 0.0000 -4.4707 17.0229 3.0685 5.4350 61.8374 6.3558 -0.0000 -0.0000 -21.3235 -4.5753 -23.0324 14.5704 -0.0000 0.0000 -0.0000 -0.0000 0.0000 -0.0000 -9.6733 2.0970 -53.9923 -1.4176 0.0000 -0.0000 2.8811 0.4042 40.9002 1.5345 0.0000 0.0000 -2.0463 0.5890 19.9729 -8.8793 0.0000 -0.0000 3.7586 -6.2749 -5.0404 -4.8636 0.0000 -0.0000
